<svg width="20" height="20" viewBox="0 0 20 20" fill="none" xmlns="http://www.w3.org/2000/svg">
<path d="M19.125 7.99983C18.9687 7.8436 18.7568 7.75584 18.5359 7.75584C18.3149 7.75584 18.103 7.8436 17.9467 7.99983L8.87002 17.1157C8.48311 17.5026 8.02378 17.8096 7.51824 18.019C7.0127 18.2285 6.47085 18.3363 5.92365 18.3363C4.81851 18.3364 3.75861 17.8975 2.9771 17.1161C2.1956 16.3347 1.75651 15.2748 1.75643 14.1697C1.75635 13.0646 2.19529 12.0047 2.97669 11.2232L11.7675 2.3965C12.2376 1.93391 12.8714 1.6758 13.5309 1.67841C14.1904 1.68102 14.8222 1.94412 15.2886 2.41042C15.755 2.87671 16.0183 3.50841 16.021 4.16792C16.0238 4.82743 15.7658 5.46131 15.3034 5.9315L6.51252 14.7582C6.35398 14.91 6.14291 14.9948 5.92335 14.9948C5.7038 14.9948 5.49273 14.91 5.33419 14.7582C5.17796 14.6019 5.0902 14.39 5.0902 14.169C5.0902 13.948 5.17796 13.7361 5.33419 13.5798L13.1609 5.71733C13.3127 5.56016 13.3966 5.34966 13.3947 5.13116C13.3928 4.91266 13.3052 4.70365 13.1507 4.54915C12.9962 4.39464 12.7872 4.307 12.5687 4.3051C12.3502 4.3032 12.1397 4.3872 11.9825 4.539L4.15585 12.4015C3.92366 12.6336 3.73947 12.9093 3.61381 13.2126C3.48815 13.5159 3.42347 13.8411 3.42347 14.1694C3.42347 14.4978 3.48815 14.8229 3.61381 15.1262C3.73947 15.4296 3.92366 15.7052 4.15585 15.9373C4.6322 16.3919 5.26534 16.6455 5.92377 16.6455C6.5822 16.6455 7.21534 16.3919 7.69169 15.9373L16.4817 7.10983C17.2467 6.32508 17.6717 5.27054 17.6647 4.17464C17.6577 3.07874 17.2192 2.02973 16.4442 1.25485C15.6692 0.479968 14.6201 0.0416165 13.5242 0.0347499C12.4283 0.0278832 11.3738 0.453055 10.5892 1.21816L1.79835 10.0448C0.704335 11.1388 0.0897217 12.6227 0.0897217 14.1698C0.0897217 15.717 0.704335 17.2008 1.79835 18.2948C2.89237 19.3888 4.37618 20.0035 5.92335 20.0035C7.47053 20.0035 8.95433 19.3888 10.0484 18.2948L19.125 9.1815C19.2029 9.10406 19.2647 9.01199 19.3068 8.9106C19.349 8.8092 19.3707 8.70047 19.3707 8.59066C19.3707 8.48085 19.349 8.37212 19.3068 8.27073C19.2647 8.16933 19.2029 8.07727 19.125 7.99983V7.99983Z" fill="#464646"/>
</svg>
