<svg width="25" height="25" viewBox="0 0 25 25" fill="none" xmlns="http://www.w3.org/2000/svg">
<g clip-path="url(#clip0_8_59)">
<path d="M13.5415 1.04177C13.5415 0.765507 13.6513 0.500555 13.8466 0.305204C14.042 0.109854 14.3069 0.000107112 14.5832 0.000107112C17.3449 0.00314003 19.9927 1.10158 21.9455 3.05443C23.8984 5.00728 24.9968 7.65503 24.9999 10.4168C24.9999 10.693 24.8901 10.958 24.6948 11.1533C24.4994 11.3487 24.2345 11.4584 23.9582 11.4584C23.6819 11.4584 23.417 11.3487 23.2216 11.1533C23.0263 10.958 22.9165 10.693 22.9165 10.4168C22.914 8.2074 22.0353 6.08922 20.473 4.52696C18.9107 2.96469 16.7926 2.08592 14.5832 2.08344C14.3069 2.08344 14.042 1.97369 13.8466 1.77834C13.6513 1.58299 13.5415 1.31804 13.5415 1.04177ZM14.5832 6.25011C15.6883 6.25011 16.7481 6.68909 17.5295 7.4705C18.3109 8.2519 18.7499 9.31171 18.7499 10.4168C18.7499 10.693 18.8596 10.958 19.055 11.1533C19.2503 11.3487 19.5153 11.4584 19.7915 11.4584C20.0678 11.4584 20.3327 11.3487 20.5281 11.1533C20.7234 10.958 20.8332 10.693 20.8332 10.4168C20.8315 8.75968 20.1725 7.17093 19.0008 5.99918C17.829 4.82744 16.2403 4.16843 14.5832 4.16677C14.3069 4.16677 14.042 4.27652 13.8466 4.47187C13.6513 4.66722 13.5415 4.93217 13.5415 5.20844C13.5415 5.48471 13.6513 5.74966 13.8466 5.94501C14.042 6.14036 14.3069 6.25011 14.5832 6.25011ZM24.0551 17.4366C24.6587 18.0419 24.9977 18.8619 24.9977 19.7168C24.9977 20.5717 24.6587 21.3917 24.0551 21.997L23.1071 23.0897C14.5759 31.2574 -6.18448 10.5022 1.85717 1.94386L3.05509 0.902191C3.6611 0.315396 4.47376 -0.00921676 5.31728 -0.00141909C6.16079 0.00637858 6.96732 0.34596 7.56237 0.943857C7.59467 0.976149 9.52487 3.48344 9.52487 3.48344C10.0976 4.08514 10.4164 4.88441 10.4151 5.71511C10.4137 6.54581 10.0923 7.34404 9.51758 7.94386L8.31133 9.46052C8.97888 11.0825 9.96035 12.5566 11.1994 13.7981C12.4384 15.0396 13.9105 16.0241 15.5311 16.6949L17.0572 15.4814C17.6571 14.9071 18.4551 14.586 19.2856 14.5849C20.116 14.5837 20.915 14.9025 21.5165 15.4751C21.5165 15.4751 24.0228 17.4043 24.0551 17.4366ZM22.6217 18.9512C22.6217 18.9512 20.129 17.0334 20.0967 17.0011C19.8821 16.7884 19.5922 16.669 19.29 16.669C18.9878 16.669 18.6978 16.7884 18.4832 17.0011C18.4551 17.0303 16.354 18.7043 16.354 18.7043C16.2124 18.817 16.0439 18.8908 15.8651 18.9186C15.6863 18.9464 15.5033 18.9271 15.3342 18.8626C13.2347 18.0809 11.3277 16.8571 9.74241 15.2741C8.1571 13.6912 6.9305 11.786 6.14571 9.68761C6.07612 9.51621 6.05344 9.32937 6.07998 9.14629C6.10653 8.96322 6.18135 8.79052 6.29675 8.64594C6.29675 8.64594 7.97071 6.54386 7.99883 6.51677C8.21161 6.30218 8.331 6.01221 8.331 5.71C8.331 5.4078 8.21161 5.11783 7.99883 4.90323C7.96654 4.87198 6.04883 2.37719 6.04883 2.37719C5.83102 2.18189 5.54676 2.07729 5.2543 2.08484C4.96185 2.0924 4.68336 2.21153 4.47592 2.41782L3.278 3.45948C-2.59907 10.5261 15.3915 27.5189 21.5842 21.6668L22.5332 20.573C22.7556 20.367 22.8891 20.0827 22.9057 19.78C22.9222 19.4773 22.8204 19.1801 22.6217 18.9512Z" fill="#464646"/>
</g>
<defs>
<clipPath id="clip0_8_59">
<rect width="25" height="25" fill="white"/>
</clipPath>
</defs>
</svg>
