<svg width="25" height="25" viewBox="0 0 25 25" fill="none" xmlns="http://www.w3.org/2000/svg">
<g clip-path="url(#clip0_8_64)">
<path d="M19.7917 1.0415H5.20833C3.82751 1.04316 2.50371 1.59242 1.52731 2.56882C0.550919 3.54521 0.00165402 4.86901 0 6.24984L0 18.7498C0.00165402 20.1307 0.550919 21.4545 1.52731 22.4309C2.50371 23.4073 3.82751 23.9565 5.20833 23.9582H19.7917C21.1725 23.9565 22.4963 23.4073 23.4727 22.4309C24.4491 21.4545 24.9983 20.1307 25 18.7498V6.24984C24.9983 4.86901 24.4491 3.54521 23.4727 2.56882C22.4963 1.59242 21.1725 1.04316 19.7917 1.0415ZM5.20833 3.12484H19.7917C20.4154 3.12606 21.0245 3.31392 21.5406 3.66422C22.0567 4.01452 22.4561 4.51124 22.6875 5.09046L14.7104 13.0686C14.1234 13.6533 13.3286 13.9816 12.5 13.9816C11.6714 13.9816 10.8766 13.6533 10.2896 13.0686L2.3125 5.09046C2.5439 4.51124 2.94335 4.01452 3.45942 3.66422C3.9755 3.31392 4.5846 3.12606 5.20833 3.12484ZM19.7917 21.8748H5.20833C4.37953 21.8748 3.58468 21.5456 2.99862 20.9595C2.41257 20.3735 2.08333 19.5786 2.08333 18.7498V7.81234L8.81667 14.5415C9.7944 15.5168 11.119 16.0645 12.5 16.0645C13.881 16.0645 15.2056 15.5168 16.1833 14.5415L22.9167 7.81234V18.7498C22.9167 19.5786 22.5874 20.3735 22.0014 20.9595C21.4153 21.5456 20.6205 21.8748 19.7917 21.8748Z" fill="#464646"/>
</g>
<defs>
<clipPath id="clip0_8_64">
<rect width="25" height="25" fill="white"/>
</clipPath>
</defs>
</svg>
