<svg width="25" height="25" viewBox="0 0 25 25" fill="none" xmlns="http://www.w3.org/2000/svg">
<path d="M6.66872 0.00947571C5.17645 0.146732 4.50958 0.295427 3.78258 0.650007C2.08807 1.47927 0.710601 3.1721 0.278774 4.95072C0.0163985 6.03733 0 6.45482 0 11.7564V16.7033L0.125722 17.1837C0.634075 19.1339 2.07167 20.6209 3.9575 21.147C4.25267 21.2271 4.61891 21.2671 5.22018 21.29C5.97451 21.3186 6.07837 21.33 6.19316 21.4387C6.33528 21.5759 6.34075 21.696 6.22596 22.1764C5.7832 23.9779 7.5597 25.5621 9.17222 24.8072C9.29794 24.7443 10.1835 24.1152 11.14 23.3946C12.9329 22.0621 13.403 21.759 14.0535 21.5474C14.6821 21.3472 15.0757 21.3072 16.6718 21.3072C19.0714 21.3072 19.9242 21.1928 20.9081 20.7524C22.5588 20.0089 23.8161 18.6993 24.4939 17.0064C24.9858 15.7883 25.0241 15.325 24.9913 10.4696C24.9694 6.27182 24.9421 5.86004 24.6797 4.84778C24.237 3.15494 22.9087 1.52502 21.3235 0.718636C20.6894 0.398371 20.1811 0.238237 19.3393 0.106699C18.8255 0.0266323 18.0001 0.00947571 12.8181 0.00375748C9.55485 -0.00196266 6.78897 -0.00196266 6.66872 0.00947571ZM19.2573 1.93679C20.3177 2.13124 21.0611 2.53729 21.81 3.3208C22.5752 4.12146 22.9524 4.88781 23.1383 6.04877C23.2202 6.56921 23.2312 7.14111 23.2312 10.8985C23.2312 15.1535 23.2312 15.1592 23.1055 15.6167C22.6791 17.1952 21.6241 18.4648 20.2303 19.071C19.4978 19.3913 19.2299 19.4199 16.7811 19.4771C14.4088 19.5285 14.2503 19.5457 13.3866 19.8488C12.6214 20.1176 12.0365 20.4836 10.2491 21.8161C8.66386 23 8.45615 23.143 8.2867 23.1258C8.16098 23.1144 8.06805 23.0572 7.99153 22.9542C7.88767 22.8055 7.88767 22.7941 7.98059 22.4338C8.27577 21.29 7.80568 20.1748 6.82177 19.6944C6.47193 19.5228 6.42274 19.5114 5.49896 19.4771C4.6681 19.4427 4.48225 19.4142 4.13788 19.2883C3.2305 18.9566 2.49804 18.2989 2.10994 17.4697C1.69451 16.5775 1.71091 16.8577 1.73824 11.3961C1.76557 6.12884 1.77104 5.95727 2.07167 5.0651C2.44884 3.91557 3.53114 2.73745 4.6517 2.24562C5.0562 2.06261 5.67934 1.93107 6.39541 1.86816C6.69605 1.83957 9.59858 1.82241 12.8455 1.83385C18.0001 1.84528 18.8145 1.85672 19.2573 1.93679Z" fill="#464646"/>
<path d="M7.30282 9.56024C6.58129 9.9377 6.44463 10.8699 7.02405 11.4704C7.59799 12.0766 8.48898 11.9336 8.84974 11.1787C9.08479 10.6755 9.01373 10.1722 8.63656 9.78329C8.26486 9.38867 7.78384 9.31432 7.30282 9.56024Z" fill="#464646"/>
<path d="M12.0529 9.50308C11.468 9.76616 11.1838 10.4982 11.4243 11.1158C11.7741 11.9851 12.9165 12.0995 13.4413 11.3103C13.6599 10.9843 13.7037 10.4582 13.5397 10.1207C13.2445 9.52596 12.5995 9.25716 12.0529 9.50308Z" fill="#464646"/>
<path d="M16.7647 9.47448C16.6609 9.5088 16.475 9.64606 16.3438 9.77759C15.9612 10.1779 15.8901 10.664 16.1306 11.1788C16.4969 11.9451 17.4644 12.0824 18.0001 11.4361C18.7981 10.4925 17.9399 9.12562 16.7647 9.47448Z" fill="#464646"/>
</svg>
