<svg width="22" height="22" viewBox="0 0 22 22" fill="none" xmlns="http://www.w3.org/2000/svg">
<path d="M2.58242 0.949591C1.99375 1.05272 1.38789 1.51678 1.12578 2.06678C0.975388 2.38475 0.880856 2.87889 0.915231 3.20115C0.949606 3.52772 2.77578 9.44022 2.91328 9.66365C2.98633 9.77967 3.09804 9.89139 3.20547 9.94725C3.30429 9.99881 4.22812 10.2523 5.25937 10.5101C6.29062 10.768 7.13281 10.9871 7.13281 11C7.13281 11.0129 6.28632 11.232 5.25507 11.4898C4.04336 11.7906 3.30859 11.9926 3.19257 12.0613C3.08515 12.1215 2.96914 12.2375 2.90468 12.3449C2.84882 12.4437 2.38047 13.8875 1.86484 15.5547L0.928122 18.584V18.9922C0.932419 19.9375 1.43515 20.6637 2.30312 20.973C2.59961 21.0804 3.17539 21.0976 3.48047 21.016C3.58789 20.9859 4.67929 20.4703 5.9082 19.873C7.13711 19.2758 10.6562 17.5656 13.7285 16.0703C16.8008 14.575 19.4863 13.2687 19.6969 13.157C20.5777 12.7058 21.0719 11.9281 21.0719 11C21.0719 10.0719 20.5777 9.29412 19.6969 8.84295C19.4863 8.73123 16.8008 7.42498 13.7285 5.92967C10.6562 4.43436 7.13711 2.7242 5.9082 2.12694C4.67929 1.52967 3.59648 1.01834 3.50195 0.996857C3.23125 0.923811 2.83593 0.902327 2.58242 0.949591ZM10.9613 6.62147C15.3441 8.75272 18.9793 10.5316 19.0437 10.5789C19.1125 10.6262 19.1855 10.7336 19.2113 10.8324C19.2801 11.0515 19.207 11.3094 19.0437 11.4211C18.8848 11.5328 3.01211 19.25 2.93906 19.25C2.85312 19.25 2.75 19.1254 2.75 19.0222C2.75 18.9707 3.11953 17.7289 3.5707 16.2637L4.3914 13.5953L7.72578 12.766C9.56484 12.3062 11.1547 11.9066 11.2621 11.8765C11.6359 11.7648 11.9023 11.3996 11.9023 11C11.9023 10.6004 11.6359 10.2351 11.2621 10.1234C11.1547 10.0933 9.56484 9.69373 7.72578 9.23397L4.3914 8.40467L3.5707 5.73631C3.11953 4.27108 2.75 3.02928 2.75 2.97772C2.75 2.87459 2.85312 2.74998 2.93906 2.74998C2.97343 2.74998 6.58281 4.49451 10.9613 6.62147Z" fill="#DEDEDE"/>
</svg>
