<svg width="21" height="21" viewBox="0 0 21 21" fill="none" xmlns="http://www.w3.org/2000/svg">
<g clip-path="url(#clip0_25_8)">
<path d="M9.20801 0.0369126C9.00293 0.090233 8.74863 0.237889 8.58867 0.39785C8.32207 0.66035 8.25644 0.877733 8.1334 1.8498C8.07598 2.33379 8.00625 2.74805 7.98574 2.77676C7.96523 2.80547 7.8832 2.84648 7.80117 2.87109C7.71914 2.8998 7.46074 3.00234 7.22695 3.10488L6.80449 3.29355L6.65273 3.17051C5.94316 2.60859 5.40586 2.21074 5.25 2.13281C4.9998 2.00566 4.59785 1.97695 4.28203 2.07129C4.04824 2.13691 4.00723 2.17383 3.08848 3.08848C2.17383 4.00723 2.13691 4.04824 2.07129 4.28203C1.97695 4.60195 2.00566 4.9998 2.13281 5.25C2.18613 5.35254 2.44453 5.70937 2.70703 6.0498C3.35918 6.88242 3.31406 6.78808 3.17051 7.07519C3.10078 7.21055 2.99414 7.46074 2.93262 7.62891C2.87109 7.79707 2.79727 7.95703 2.77266 7.98164C2.74805 8.00625 2.32969 8.07598 1.8457 8.1375C0.869531 8.26055 0.660352 8.32617 0.397852 8.58867C0.311719 8.6707 0.196875 8.83476 0.13125 8.95371L0.0205078 9.16699V10.4795V11.792L0.127148 12.0217C0.188672 12.1488 0.303516 12.3211 0.389648 12.4072C0.660352 12.6779 0.881836 12.7477 1.81289 12.8625C2.26816 12.9158 2.68242 12.9773 2.72754 12.9979C2.77676 13.0184 2.84238 13.1209 2.8875 13.2521C2.92852 13.3752 3.03926 13.6336 3.12949 13.8305C3.24023 14.0807 3.28125 14.2078 3.25254 14.2406C3.23203 14.2693 2.99004 14.5811 2.71934 14.9297C2.44863 15.2783 2.18613 15.6475 2.13281 15.75C2.00566 16.0002 1.97695 16.398 2.07129 16.718C2.13691 16.9518 2.17383 16.9928 3.08848 17.9115C4.00723 18.8262 4.04824 18.8631 4.28203 18.9287C4.59785 19.023 4.9998 18.9943 5.25 18.8672C5.40586 18.7893 5.94316 18.3914 6.65273 17.8295L6.80449 17.7064L7.22695 17.8951C7.46074 17.9977 7.71914 18.1002 7.80117 18.1289C7.8832 18.1535 7.96523 18.1945 7.98574 18.2232C8.00625 18.252 8.07598 18.6662 8.1334 19.1502C8.25644 20.1264 8.32207 20.3396 8.59277 20.6104C8.67891 20.6965 8.85117 20.8113 8.97832 20.8729L9.20801 20.9795H10.5H11.792L12.0217 20.8729C12.1488 20.8113 12.3211 20.6965 12.4072 20.6104C12.682 20.3355 12.7477 20.1182 12.8666 19.1461C12.924 18.6662 12.9937 18.252 13.0184 18.2273C13.043 18.2027 13.2029 18.1289 13.3711 18.0674C13.5393 18.0059 13.7895 17.8992 13.9248 17.8295C14.2119 17.6859 14.1176 17.6408 14.9502 18.293C15.2906 18.5555 15.6475 18.8139 15.75 18.8672C16.0002 18.9943 16.398 19.023 16.718 18.9287C16.9518 18.8631 16.9928 18.8262 17.9115 17.9115C18.8262 16.9928 18.8631 16.9518 18.9287 16.718C19.023 16.398 18.9943 16.0002 18.8672 15.75C18.7934 15.6064 18.4078 15.0855 17.7475 14.2447C17.7229 14.2078 17.768 14.0602 17.8951 13.773C17.9977 13.5393 18.1002 13.2809 18.1289 13.1988C18.1535 13.1168 18.1945 13.0348 18.2232 13.0143C18.252 12.9937 18.6662 12.924 19.1502 12.8666C20.1264 12.7436 20.3396 12.6779 20.6104 12.4072C20.6965 12.3211 20.8113 12.1488 20.8729 12.0217L20.9795 11.792V10.5V9.20801L20.8729 8.97832C20.8113 8.85117 20.6965 8.67891 20.6104 8.59277C20.3396 8.32207 20.1223 8.25644 19.1379 8.12519C18.6498 8.06367 18.2355 7.99394 18.215 7.97344C18.1945 7.95293 18.1289 7.79707 18.0674 7.62891C18.0059 7.46074 17.8992 7.21055 17.8295 7.07519C17.6859 6.78808 17.6408 6.88242 18.293 6.0498C18.5555 5.70937 18.8139 5.35254 18.8672 5.25C18.9943 4.9998 19.023 4.60195 18.9287 4.28203C18.8631 4.04824 18.8262 4.00723 17.9115 3.08848C16.9928 2.17383 16.9518 2.13691 16.718 2.07129C16.398 1.97695 16.0002 2.00566 15.75 2.13281C15.6475 2.18613 15.2906 2.44453 14.9502 2.70703C14.1176 3.35918 14.2119 3.31406 13.9248 3.17051C13.7895 3.10078 13.5393 2.99414 13.3711 2.93262C13.2029 2.87109 13.043 2.79726 13.0184 2.77266C12.9937 2.74805 12.924 2.33379 12.8666 1.8498C12.7436 0.873631 12.6779 0.664452 12.4072 0.389647C12.3211 0.303514 12.1488 0.18867 12.0217 0.127147L11.792 0.0205064L10.5615 0.0123033C9.88477 0.0082017 9.27773 0.0205064 9.20801 0.0369126ZM11.6443 0.914647C11.8658 1.02539 11.8945 1.11562 12.0381 2.23535C12.1406 3.04746 12.1898 3.31406 12.2473 3.39199C12.3047 3.46582 12.4687 3.54375 12.8215 3.6709C13.0922 3.76523 13.5146 3.9416 13.7607 4.06055C14.1504 4.24922 14.2201 4.26973 14.3309 4.23691C14.4006 4.21641 14.8354 3.90469 15.2988 3.54375C16.4268 2.66601 16.2463 2.64961 17.2963 3.70371C18.3504 4.75371 18.3381 4.56504 17.4439 5.71758C17.0789 6.18926 16.7672 6.63223 16.7508 6.69375C16.7344 6.78808 16.7754 6.91113 16.9395 7.25156C17.0584 7.48945 17.2266 7.8873 17.3168 8.1334C17.5096 8.6748 17.5301 8.71992 17.6449 8.78144C17.6941 8.81016 18.2068 8.89219 18.7811 8.96601C19.8844 9.10547 19.9746 9.13418 20.0854 9.35566C20.1592 9.49512 20.1592 11.5049 20.0854 11.6443C19.9746 11.8658 19.8844 11.8945 18.777 12.034C18.2027 12.1119 17.6941 12.1939 17.6449 12.2186C17.5301 12.2801 17.5055 12.3252 17.3127 12.8707C17.2266 13.1209 17.0543 13.5187 16.9395 13.7607C16.7467 14.1504 16.7262 14.2119 16.7631 14.3309C16.7836 14.4006 17.0953 14.8354 17.4562 15.2988C18.334 16.4268 18.3504 16.2463 17.2963 17.2963C16.2463 18.3504 16.435 18.3381 15.2824 17.4439C14.8107 17.0789 14.3678 16.7672 14.3062 16.7508C14.2119 16.7344 14.0889 16.7754 13.7484 16.9395C13.5105 17.0584 13.1086 17.2266 12.8584 17.3168C12.6123 17.407 12.3662 17.5055 12.317 17.5383C12.1898 17.6203 12.157 17.7721 12.0217 18.8631C11.8945 19.8762 11.8658 19.9746 11.6443 20.0854C11.5049 20.1592 9.49512 20.1592 9.35566 20.0854C9.13418 19.9705 9.10547 19.8844 8.96602 18.7687C8.85937 17.9443 8.81426 17.69 8.75273 17.608C8.69531 17.5342 8.53535 17.4562 8.18262 17.3291C7.90781 17.2348 7.48945 17.0584 7.24746 16.9436C6.90293 16.7754 6.78398 16.7344 6.68965 16.7549C6.62402 16.7672 6.21387 17.0584 5.7791 17.3947C5.34023 17.7352 4.93008 18.0428 4.86855 18.0756C4.62656 18.1986 4.54863 18.1453 3.69141 17.2881C2.65371 16.2463 2.66602 16.4309 3.55605 15.2824C3.92109 14.8107 4.23281 14.3719 4.24512 14.3104C4.26562 14.2242 4.22051 14.0889 4.06055 13.7607C3.9457 13.5187 3.77344 13.1168 3.6873 12.8666C3.59707 12.6123 3.49453 12.3662 3.46172 12.317C3.37969 12.1898 3.22793 12.157 2.13691 12.0217C1.12383 11.8945 1.02539 11.8658 0.914648 11.6443C0.84082 11.5049 0.84082 9.49512 0.914648 9.35566C1.02539 9.13418 1.12383 9.10547 2.13691 8.97832C3.22793 8.84297 3.37969 8.81016 3.46172 8.68301C3.49453 8.63379 3.59297 8.38769 3.6832 8.1416C3.77344 7.89141 3.9416 7.48945 4.06055 7.24746C4.25332 6.85371 4.27383 6.78808 4.23691 6.67324C4.21641 6.59941 3.90469 6.16465 3.54375 5.70117C2.66602 4.57324 2.64961 4.75371 3.70371 3.70371C4.75371 2.64961 4.57324 2.66601 5.70117 3.54375C6.16465 3.90469 6.59941 4.21641 6.66914 4.23691C6.78398 4.27383 6.85371 4.25332 7.26797 4.04824C7.52227 3.92519 7.92422 3.75703 8.16211 3.6709C8.4 3.58887 8.63379 3.49453 8.68301 3.46582C8.81016 3.37969 8.84297 3.22793 8.97832 2.13691C9.10547 1.12383 9.13418 1.02539 9.35566 0.914647C9.42539 0.877733 9.74941 0.861327 10.5 0.861327C11.2506 0.861327 11.5746 0.877733 11.6443 0.914647Z" fill="#5B5B5B"/>
<path d="M9.99953 6.15235C8.48605 6.34102 7.19816 7.28028 6.54191 8.6666C5.75441 10.3359 6.12355 12.3334 7.45656 13.6254C8.77316 14.8969 10.705 15.2332 12.3251 14.4621C13.3013 14.0027 14.0027 13.3014 14.4579 12.3334C15.5202 10.0857 14.4661 7.41563 12.1282 6.44356C11.5253 6.19336 10.6353 6.07031 9.99953 6.15235ZM11.1972 7.0711C12.1036 7.26387 12.887 7.79707 13.4079 8.57227C13.8058 9.16699 13.9862 9.77813 13.9862 10.5164C13.9821 11.7018 13.4243 12.7354 12.4236 13.408C12.0421 13.6664 11.5335 13.8715 11.0905 13.9494C10.9306 13.9781 10.6107 13.9904 10.3195 13.9781C9.72062 13.9535 9.23664 13.81 8.71574 13.5023C8.32609 13.2727 7.79699 12.7641 7.555 12.3867C7.35402 12.0791 7.15304 11.5828 7.07101 11.1973C6.99719 10.8527 6.99719 10.1473 7.07101 9.80274C7.36222 8.43692 8.41633 7.37461 9.78215 7.0752C10.1103 7.00137 10.865 7.00137 11.1972 7.0711Z" fill="#5B5B5B"/>
</g>
<defs>
<clipPath id="clip0_25_8">
<rect width="21" height="21" fill="white"/>
</clipPath>
</defs>
</svg>
